<svg enable-background="new 0 0 136.5 132.5" viewBox="0 0 136.5 132.5" xmlns="http://www.w3.org/2000/svg" xmlns:xlink="http://www.w3.org/1999/xlink"><clipPath id="a"><ellipse cx="68.1" cy="65.5" rx="64.5" ry="65" transform="matrix(.1004 -.9949 .9949 .1004 -3.9367 126.6391)"/></clipPath><clipPath id="b"><path d="m-2-4h140v139h-140z"/></clipPath><clipPath id="c"><path d="m-2-4h140v139h-140z"/></clipPath><g opacity=".64"><g clip-path="url(#a)"><g clip-path="url(#b)"><g clip-path="url(#c)"><image height="291" overflow="visible" transform="matrix(.48 0 0 .48 -2 -4.32)" width="292" xlink:href="C60F20E3.jpg"/></g></g></g><ellipse cx="68.1" cy="65.5" fill="none" rx="64.5" ry="65" stroke="#ca9e67" stroke-miterlimit="10" stroke-width=".25" transform="matrix(.1004 -.9949 .9949 .1004 -3.9367 126.6391)"/></g><path d="m46.4 34.5c-.9-.9-.9-2.3 0-3.2l19.2-19.7c.9-.9 2.3-.9 3.2 0l19.7 19.2c.9.9.9 2.3 0 3.2l-5 5.1" fill="#77c8d5" stroke="#e73e11" stroke-miterlimit="10" stroke-width=".25"/><path d="m50.9 39-4.6-4.5s4.8 4.7 4.8 4.7l1.6-1.6 2-.8 2.2-.5 2.7.4s2 1.2 2.5 1.4c.6.2 1.8 2.1 1.8 2.1l1.2 2.7-.3 3.5-2.4 3.8 3.6 3.5c.9.9 2.3.9 3.2 0l14.3-14.6-37.4-4.9" fill="#77c8d5"/><path d="m51.1 39.4c.2-.2.4-.4.6-.7 3-3.1 8-3.2 11.1-.2s3.1 8 .1 11.1c-.2.2-.4.4-.6.5" fill="none" stroke="#e73e11" stroke-miterlimit="10" stroke-width=".25"/><path d="m84 37.7c.2.2.4.3.6.5 2.9 2.8 3 7.4.2 10.3s-7.4 2.9-10.3 0c-.2-.2-.4-.4-.5-.6" fill="#77c8d5" stroke="#e73e11" stroke-miterlimit="10" stroke-width=".25"/><path d="m99.5 36.4c1.2-1.1 3-1.1 4.1 0l24.9 25.3c1.1 1.2 1.1 3 0 4.1l-25.3 24.9c-1.2 1.1-3 1.1-4.1 0l-6.5-6.6" fill="#a88abf" stroke="#b43b8e" stroke-miterlimit="10" stroke-width=".25"/><path d="m93.6 42.2 5.9-5.8c-.1.1-6.2 6.1-6.2 6.1l2 2 1 2.5.6 2.9-.5 3.5s-1.5 2.5-1.8 3.2-2.8 2.3-2.8 2.3l-3.5 1.5-4.6-.4-4.9-3.2-4.6 4.6c-1.2 1.1-1.2 3 0 4.1l18.5 18.7 7.2-48.2" fill="#a88abf"/><path d="m93.1 42.4c.3.2.6.5.8.8 4 4 4 10.4 0 14.3s-10.4 3.8-14.3-.2c-.2-.2-.5-.5-.7-.8" fill="none" stroke="#f4e717" stroke-miterlimit="10" stroke-width=".25"/><path d="m94.5 84.9c-.2.3-.4.5-.7.8-3.7 3.7-9.6 3.7-13.2 0-3.6-3.6-3.5-9.6.2-13.2.2-.2.5-.4.7-.6" fill="#a88abf" stroke="#f4e717" stroke-miterlimit="10" stroke-width=".25"/><path d="m91.4 97c1.1 1 1.1 2.7.1 3.7l-21.8 23.4c-1 1.1-2.7 1.1-3.7.1l-23.4-21.8c-1.1-1-1.1-2.7-.1-3.7l5.7-6.1" fill="#77c8d5" stroke="#e73e11" stroke-miterlimit="10" stroke-width=".25"/><path d="m85.9 91.9 5.5 5.1c-.1 0-5.7-5.3-5.7-5.3l-1.8 1.9-2.2 1-2.6.6-3.2-.3s-2.3-1.3-3-1.5-2.2-2.4-2.2-2.4l-1.5-3.1.3-4.1 2.7-4.5-4.3-4c-1.1-1-2.7-.9-3.7.1l-16.1 17.3 43.6 4.7" fill="#77c8d5"/><g stroke-miterlimit="10" stroke-width=".25"><path d="m85.8 91.5c-.2.3-.4.5-.6.8-3.4 3.7-9.2 3.9-12.9.5s-3.8-9.2-.4-12.9l.7-.7" fill="none" stroke="#e73e11"/><path d="m47.6 94.3c-.2-.2-.5-.4-.7-.6-3.4-3.2-3.7-8.5-.5-11.9 3.1-3.4 8.5-3.5 11.9-.3.2.2.4.4.6.6" fill="#77c8d5" stroke="#e73e11"/><path d="m0 0h136v132h-136z" fill="none" stroke="#b17f4a"/><path d="m36.3 95.8c-1.2 1.2-3.1 1.1-4.2 0l-25.5-25.9c-1.2-1.2-1.1-3.1 0-4.2l25.9-25.5c1.2-1.2 3.1-1.1 4.2 0l6.6 6.7" fill="#a88abf" stroke="#b43b8e"/></g><path d="m42.3 89.9-6 5.9c.1-.1 6.3-6.2 6.3-6.2l-2.1-2.1-1.1-2.6-.5-2.9.5-3.6s1.6-2.6 1.9-3.3 2.8-2.3 2.8-2.3l3.6-1.5 4.6.6 5 3.3 4.8-4.7c1.2-1.2 1.2-3.1 0-4.2l-18.8-19.4-7.5 49.2" fill="#a88abf"/><path d="m42 89c-4-4.1-4-10.6 0-14.6 4.1-4 10.6-3.9 14.6.2" fill="none" stroke="#f4e717" stroke-miterlimit="10" stroke-width=".25"/><path d="m41.5 46.3c.2-.3.5-.5.7-.8 3.8-3.7 9.9-3.7 13.5 0 3.7 3.7 3.6 9.8-.2 13.5-.2.2-.5.5-.7.7" fill="#a88abf" stroke="#f4e717" stroke-miterlimit="10" stroke-width=".25"/></svg>